<svg width="61" height="61" viewBox="0 0 61 61" fill="none" xmlns="http://www.w3.org/2000/svg">
<path fill-rule="evenodd" clip-rule="evenodd" d="M30.1511 60.9236C46.7197 60.9236 60.1511 47.4922 60.1511 30.9236C60.1511 14.355 46.7197 0.923584 30.1511 0.923584C13.5825 0.923584 0.151123 14.355 0.151123 30.9236C0.151123 47.4922 13.5825 60.9236 30.1511 60.9236ZM32.2466 32.1274V44.4214H27.2786V32.1184H23.1492V27.3049H27.2698V23.7725C27.2698 19.6639 29.7866 17.4259 33.4526 17.4259C34.6887 17.4211 35.9241 17.4847 37.1531 17.6165V21.908H34.6272C32.6338 21.908 32.2466 22.8589 32.2466 24.2479V27.314H37.0107L36.3943 32.1274H32.2466Z" fill="white"/>
</svg>
