<svg width="61" height="61" viewBox="0 0 61 61" fill="none" xmlns="http://www.w3.org/2000/svg">
<path fill-rule="evenodd" clip-rule="evenodd" d="M30.5835 60.9238C47.152 60.9238 60.5835 47.4924 60.5835 30.9238C60.5835 14.3553 47.152 0.923828 30.5835 0.923828C14.015 0.923828 0.583496 14.3553 0.583496 30.9238C0.583496 47.4924 14.015 60.9238 30.5835 60.9238ZM30.5836 15.3405C26.3506 15.3405 25.8207 15.3575 24.159 15.434H24.1576C22.5001 15.5105 21.3667 15.774 20.3751 16.1579C19.3359 16.5495 18.3946 17.163 17.6168 17.9556C16.8237 18.7338 16.2097 19.6756 15.8177 20.7153C15.4337 21.707 15.1688 22.8403 15.0937 24.5006C15.0187 26.161 15.0002 26.6908 15.0002 30.9238C15.0002 35.1554 15.0172 35.6852 15.0937 37.3498C15.1702 39.0073 15.4337 40.1406 15.8177 41.1323C16.2091 42.172 16.8226 43.1137 17.6154 43.892C18.3943 44.6842 19.3365 45.2972 20.3765 45.6883C21.3682 46.0736 22.5015 46.3385 24.159 46.4136C25.8207 46.4887 26.3506 46.5071 30.5836 46.5071C34.8166 46.5071 35.3464 46.4901 37.0096 46.4136C38.6671 46.3371 39.8004 46.0736 40.7921 45.6883C41.8305 45.2973 42.7726 44.6853 43.5517 43.892C44.3441 43.1131 44.9571 42.1708 45.3481 41.1309C45.7334 40.1392 45.9983 39.0059 46.0734 37.3484C46.1485 35.6866 46.1669 35.1568 46.1669 30.9238C46.1669 26.6922 46.1499 26.1624 46.0734 24.4978C45.9969 22.8403 45.7334 21.707 45.3481 20.7153C44.9571 19.6755 44.3451 18.7348 43.5517 17.957C42.7726 17.1637 41.8305 16.5503 40.7921 16.1579C39.8004 15.774 38.6671 15.509 37.0067 15.434C35.3464 15.3589 34.8166 15.3405 30.5836 15.3405ZM30.5836 18.1483C34.7443 18.1483 35.2373 18.1639 36.8807 18.239C38.4007 18.3084 39.2252 18.562 39.7749 18.7759C40.4517 19.0255 41.064 19.4234 41.567 19.9404C42.1124 20.4858 42.4482 21.0057 42.7315 21.7325C42.9454 22.2821 43.199 23.1066 43.2684 24.6267C43.3435 26.27 43.3591 26.763 43.3591 30.9238C43.3591 35.0845 43.3435 35.5775 43.2684 37.2209C43.199 38.741 42.9454 39.5655 42.7315 40.1151C42.4822 40.7909 42.0841 41.4043 41.567 41.9072C41.0216 42.4526 40.5017 42.7884 39.7749 43.0717C39.2252 43.2856 38.4007 43.5392 36.8807 43.6086C35.2373 43.6837 34.7457 43.6993 30.5836 43.6993C26.4214 43.6993 25.9298 43.6837 24.2865 43.6086C22.7664 43.5392 21.9419 43.2856 21.3922 43.0717C20.7165 42.8224 20.1031 42.4243 19.6002 41.9072C19.0831 41.4043 18.685 40.7909 18.4357 40.1151C18.2217 39.5655 17.9682 38.741 17.8987 37.2209C17.8237 35.5775 17.8081 35.0845 17.8081 30.9238C17.8081 26.763 17.8237 26.27 17.8987 24.6267C17.9682 23.1066 18.2217 22.2821 18.4357 21.7325C18.6852 21.0557 19.0831 20.4434 19.6002 19.9404C20.1456 19.395 20.6655 19.0592 21.3922 18.7759C21.9419 18.562 22.7664 18.3084 24.2865 18.239C25.9298 18.1639 26.4228 18.1483 30.5836 18.1483ZM32.0951 35.9044C30.9425 36.2529 29.7048 36.1904 28.5932 35.7277C27.8832 35.4333 27.2473 34.9851 26.7313 34.4155C26.2153 33.8458 25.832 33.1688 25.609 32.4333C25.386 31.6977 25.3289 30.9219 25.4418 30.1616C25.5547 29.4013 25.8347 28.6755 26.2618 28.0364C26.6888 27.3973 27.2522 26.8609 27.9115 26.4657C28.5707 26.0705 29.3094 25.8264 30.0743 25.751C30.8392 25.6755 31.6113 25.7706 32.335 26.0294C33.0588 26.2882 33.7162 26.7042 34.2598 27.2475C35.1127 28.0975 35.644 29.2172 35.763 30.4154C35.882 31.6135 35.5813 32.8158 34.9124 33.817C34.2434 34.8181 33.2476 35.5559 32.0951 35.9044ZM27.5183 23.5236C26.5465 23.9262 25.6635 24.5162 24.9197 25.26C23.4176 26.7621 22.5737 28.7994 22.5737 30.9238C22.5737 33.0481 23.4176 35.0855 24.9197 36.5876C26.4219 38.0898 28.4592 38.9337 30.5836 38.9337C32.7079 38.9337 34.7453 38.0898 36.2474 36.5876C36.9912 35.8438 37.5812 34.9608 37.9837 33.989C38.3863 33.0172 38.5934 31.9757 38.5934 30.9238C38.5934 29.8719 38.3863 28.8303 37.9837 27.8585C37.5812 26.8867 36.9912 26.0037 36.2474 25.26C35.5036 24.5162 34.6206 23.9262 33.6488 23.5236C32.677 23.1211 31.6354 22.9139 30.5836 22.9139C29.5317 22.9139 28.4901 23.1211 27.5183 23.5236ZM40.8038 23.4919C40.7018 23.7238 40.5542 23.9329 40.3699 24.1068C40.0115 24.4449 39.5353 24.6301 39.0426 24.6229C38.5499 24.6157 38.0793 24.4168 37.7309 24.0683C37.3824 23.7199 37.1835 23.2493 37.1763 22.7566C37.1691 22.2639 37.3543 21.7877 37.6924 21.4293C37.8663 21.245 38.0754 21.0974 38.3073 20.9954C38.5392 20.8933 38.7892 20.8388 39.0426 20.8351C39.2959 20.8314 39.5475 20.8786 39.7823 20.9739C40.0171 21.0691 40.2304 21.2105 40.4095 21.3897C40.5887 21.5688 40.7301 21.7821 40.8253 22.0169C40.9206 22.2517 40.9678 22.5033 40.9641 22.7566C40.9604 23.01 40.9059 23.26 40.8038 23.4919Z" fill="white"/>
</svg>
