<svg width="61" height="61" viewBox="0 0 61 61" fill="none" xmlns="http://www.w3.org/2000/svg">
<rect x="1.16113" y="1.09961" width="59" height="59" rx="29.5" fill="white"/>
<path fill-rule="evenodd" clip-rule="evenodd" d="M24.2366 15.1099C25.8984 15.0334 26.4282 15.0164 30.6612 15.0164C34.8942 15.0164 35.424 15.0348 37.0844 15.1099C38.7447 15.1849 39.878 15.4499 40.8697 15.8338C41.9081 16.2262 42.8502 16.8396 43.6294 17.6329C44.4227 18.4107 45.0347 19.3514 45.4257 20.3912C45.811 21.3829 46.0745 22.5162 46.151 24.1737C46.2275 25.8383 46.2445 26.3681 46.2445 30.5997C46.2445 34.8327 46.2261 35.3625 46.151 37.0243C46.076 38.6818 45.811 39.8151 45.4257 40.8068C45.0347 41.8467 44.4217 42.789 43.6294 43.5679C42.8502 44.3612 41.9081 44.9732 40.8697 45.3642C39.878 45.7495 38.7447 46.013 37.0872 46.0895C35.424 46.166 34.8942 46.183 30.6612 46.183C26.4282 46.183 25.8984 46.1646 24.2366 46.0895C22.5791 46.0144 21.4458 45.7495 20.4541 45.3642C19.4142 44.9731 18.472 44.3601 17.693 43.5679C16.9003 42.7896 16.2867 41.8479 15.8953 40.8082C15.5114 39.8165 15.2479 38.6832 15.1714 37.0257C15.0949 35.3611 15.0779 34.8313 15.0779 30.5997C15.0779 26.3667 15.0963 25.8369 15.1714 24.1765C15.2465 22.5162 15.5114 21.3829 15.8953 20.3912C16.2873 19.3515 16.9013 18.4097 17.6945 17.6315C18.4723 16.8389 19.4135 16.2254 20.4527 15.8338C21.4444 15.4499 22.5777 15.1864 24.2352 15.1099H24.2366ZM36.9583 17.9149C35.315 17.8398 34.822 17.8242 30.6612 17.8242C26.5005 17.8242 26.0075 17.8398 24.3641 17.9149C22.844 17.9843 22.0195 18.2379 21.4699 18.4518C20.7431 18.7351 20.2232 19.0709 19.6778 19.6163C19.1608 20.1193 18.7629 20.7316 18.5133 21.4084C18.2994 21.958 18.0458 22.7825 17.9764 24.3026C17.9013 25.9459 17.8857 26.4389 17.8857 30.5997C17.8857 34.7604 17.9013 35.2534 17.9764 36.8968C18.0458 38.4169 18.2994 39.2414 18.5133 39.791C18.7626 40.4668 19.1607 41.0802 19.6778 41.5831C20.1807 42.1002 20.7941 42.4983 21.4699 42.7476C22.0195 42.9615 22.844 43.2151 24.3641 43.2845C26.0075 43.3596 26.499 43.3752 30.6612 43.3752C34.8234 43.3752 35.315 43.3596 36.9583 43.2845C38.4784 43.2151 39.3029 42.9615 39.8525 42.7476C40.5793 42.4643 41.0992 42.1285 41.6446 41.5831C42.1617 41.0802 42.5598 40.4668 42.8091 39.791C43.023 39.2414 43.2766 38.4169 43.346 36.8968C43.4211 35.2534 43.4367 34.7604 43.4367 30.5997C43.4367 26.4389 43.4211 25.9459 43.346 24.3026C43.2766 22.7825 43.023 21.958 42.8091 21.4084C42.5258 20.6816 42.19 20.1617 41.6446 19.6163C41.1416 19.0993 40.5293 18.7014 39.8525 18.4518C39.3029 18.2379 38.4784 17.9843 36.9583 17.9149ZM28.6708 35.4036C29.7824 35.8663 31.0202 35.9288 32.1727 35.5803C33.3252 35.2318 34.321 34.494 34.99 33.4929C35.659 32.4917 35.9596 31.2894 35.8406 30.0913C35.7216 28.8931 35.1903 27.7734 34.3375 26.9234C33.7938 26.3801 33.1364 25.9641 32.4127 25.7053C31.6889 25.4465 30.9168 25.3515 30.1519 25.4269C29.387 25.5023 28.6483 25.7464 27.9891 26.1416C27.3299 26.5368 26.7664 27.0732 26.3394 27.7123C25.9124 28.3514 25.6323 29.0772 25.5194 29.8375C25.4066 30.5978 25.4637 31.3736 25.6866 32.1092C25.9096 32.8447 26.2929 33.5217 26.8089 34.0914C27.3249 34.661 27.9608 35.1092 28.6708 35.4036ZM24.9974 24.9359C25.7412 24.1921 26.6242 23.6021 27.596 23.1995C28.5678 22.797 29.6093 22.5898 30.6612 22.5898C31.7131 22.5898 32.7547 22.797 33.7265 23.1995C34.6983 23.6021 35.5813 24.1921 36.325 24.9359C37.0688 25.6796 37.6588 26.5626 38.0614 27.5344C38.4639 28.5062 38.6711 29.5478 38.6711 30.5997C38.6711 31.6516 38.4639 32.6931 38.0614 33.6649C37.6588 34.6367 37.0688 35.5197 36.325 36.2635C34.8229 37.7657 32.7856 38.6096 30.6612 38.6096C28.5369 38.6096 26.4995 37.7657 24.9974 36.2635C23.4952 34.7614 22.6513 32.724 22.6513 30.5997C22.6513 28.4753 23.4952 26.438 24.9974 24.9359ZM40.4475 23.7827C40.6319 23.6088 40.7794 23.3997 40.8815 23.1678C40.9835 22.9359 41.038 22.6859 41.0417 22.4325C41.0454 22.1792 40.9982 21.9276 40.903 21.6928C40.8077 21.458 40.6663 21.2447 40.4872 21.0656C40.308 20.8864 40.0947 20.745 39.8599 20.6498C39.6251 20.5545 39.3736 20.5073 39.1202 20.511C38.8669 20.5147 38.6168 20.5692 38.3849 20.6713C38.153 20.7733 37.9439 20.9209 37.77 21.1052C37.4319 21.4636 37.2468 21.9398 37.254 22.4325C37.2611 22.9252 37.4601 23.3958 37.8085 23.7442C38.157 24.0927 38.6275 24.2916 39.1202 24.2988C39.613 24.306 40.0891 24.1208 40.4475 23.7827Z" fill="#FF3659"/>
<rect x="1.16113" y="1.09961" width="59" height="59" rx="29.5" stroke="#C9C9C9"/>
</svg>
