<svg width="110" height="105" viewBox="0 0 110 105" fill="none" xmlns="http://www.w3.org/2000/svg">
<path d="M76.2339 73.1421C80.2248 72.8018 83.3048 69.2921 83.1089 65.1018C82.8923 60.9115 79.4548 57.5496 75.2851 57.5496H74.9964C72.9197 57.624 70.9576 58.52 69.5414 60.0406C68.1252 61.5612 67.3708 63.582 67.4442 65.6587C67.5851 67.8621 68.4789 69.6324 69.7164 70.9387C64.9004 80.2853 57.7023 87.1465 46.7642 92.9249C39.4251 96.7578 31.6701 98.2084 24.1179 97.1703C17.7964 96.2937 12.8567 93.4681 9.83168 88.934C5.29762 82.059 4.88512 74.6649 8.66637 67.2365C11.4198 61.8843 15.5414 57.9587 18.2776 56.044C17.4552 53.7408 16.815 51.3766 16.3629 48.9731C-3.97332 63.5309 -1.89707 83.4581 4.28012 92.8596C8.88293 99.7346 18.2776 104.121 28.5729 104.121C31.3332 104.121 34.2139 103.925 37.0257 103.224C54.8973 99.7862 68.4136 89.0784 76.1617 73.2899L76.2339 73.1421ZM100.743 55.9753C90.1111 43.4765 74.4429 36.6015 56.5954 36.6015H54.2476C53.1029 34.0749 50.4148 32.4868 47.3898 32.4868H47.1939C42.8626 32.4868 39.4939 36.2096 39.6348 40.5271C39.7826 44.6418 43.2682 48.0793 47.4586 48.0793H47.8023C49.289 48.0189 50.7272 47.533 51.9459 46.6793C53.1645 45.8256 54.1126 44.64 54.6773 43.2634H57.2176C67.8017 43.2634 77.8117 46.3606 86.9589 52.3968C93.9404 56.9928 98.9729 63.0496 101.781 70.2615C104.253 76.1499 104.109 81.9353 101.565 86.7512C97.6632 94.2862 91.0564 98.2771 82.3561 98.2771C76.8595 98.2771 71.5073 96.5584 68.747 95.3243C67.1004 96.6856 64.3436 98.9578 62.3532 100.34C68.4067 103.076 74.5117 104.654 80.4207 104.654C93.8132 104.654 103.768 97.1153 107.546 89.8312C111.661 81.5949 111.324 67.7178 100.812 55.8309L100.743 55.9753ZM29.7382 75.6137C29.8322 77.6362 30.6972 79.546 32.1554 80.9505C33.6137 82.3551 35.5546 83.1479 37.5792 83.1659H37.8507C38.8829 83.1414 39.8997 82.9107 40.8414 82.4876C41.7832 82.0644 42.6307 81.4572 43.3344 80.7016C44.038 79.9461 44.5835 79.0575 44.9387 78.0881C45.294 77.1187 45.4518 76.0881 45.4029 75.0568C45.4029 70.9353 41.8417 67.4978 37.6514 67.4978H37.3626C37.0979 67.4978 36.6854 67.4978 36.3279 67.6456C30.6354 58.0309 28.2326 47.7184 29.1264 36.5981C29.6661 28.2209 32.4229 20.9506 37.3626 14.9006C41.4842 9.7615 49.2323 7.20057 54.5329 7.07682C69.3589 6.78807 75.5532 25.2818 76.0207 32.6243L82.8957 34.6834C81.3007 12.1609 67.3032 0.346191 53.9107 0.346191C41.3432 0.346191 29.7382 9.47619 25.0667 22.8687C18.6901 40.7403 22.8804 57.8899 30.7042 71.6399C30.027 72.5165 29.6145 74.1115 29.7382 75.6137Z" fill="white"/>
</svg>

