<svg width="159" height="151" viewBox="0 0 159 151" fill="none" xmlns="http://www.w3.org/2000/svg">
<g filter="url(#filter0_d_961_85)">
<path d="M137.376 81.1768C152.539 99.636 158.363 118.261 150.522 129.281C142.513 140.536 122.329 140.921 99.3166 132.074C101.95 130.657 104.648 129.053 107.324 127.243C113.158 123.303 119.028 118.1 123.833 111.863C131.333 102.122 135.296 90.8662 137.376 81.1768Z" fill="white"/>
<path d="M39.4528 19.4832C39.6479 25.8797 40.896 41.1168 47.9456 56.0054C31.0978 53.8623 15.8161 57.6764 10.0558 59.4047C3.60699 46.9178 2.37227 35.4805 7.84405 27.7546C13.4482 19.8411 25.063 17.27 39.4528 19.4832Z" fill="white"/>
<path d="M91.217 71.9981C85.4418 66.3315 79.5492 64.1566 73.8813 61.635C73.7995 61.5981 73.4787 61.6416 73.3942 61.6056C73.0836 61.4704 72.6528 61.3732 72.3375 61.242C72.0667 61.1271 71.7319 61.0333 71.4572 60.9221C71.1702 60.8046 70.8499 60.7011 70.5589 60.5868C65.6971 58.6991 60.745 57.5033 55.9242 56.8026C55.6152 56.757 55.2988 56.7161 54.9896 56.6765C48.0234 41.7477 46.8536 26.5075 46.6946 20.1094C46.6447 18.1154 46.6936 16.9807 46.6936 16.9807C46.6936 16.9807 68.6777 21.2262 85.7545 34.3986C85.9245 34.5268 86.0921 34.6587 86.2601 34.7905C85.8048 39.7586 86.3568 44.9159 86.5799 50.2633C86.922 58.4938 91.217 71.9981 91.217 71.9981Z" fill="white"/>
<path d="M15.272 66.7151C15.272 66.7151 24.0848 84.8448 41.4174 97.7789C41.577 97.9023 41.741 98.0239 41.9075 98.1453C46.5658 96.3816 51.5819 95.0184 56.8798 94.3258C83.9648 90.7946 112.49 109.223 112.478 109.206C104.995 100.284 97.5384 91.1628 93.0534 82.6337C93.0527 82.6314 89.6494 79.4807 89.5228 79.3553C85.072 75.5078 80.1995 72.6137 74.4444 69.7095C70.4851 67.7115 61.4548 65.1372 56.6603 64.2747C56.3527 64.2188 56.0389 64.1672 55.73 64.1167C38.9802 61.3125 23.5524 64.5257 17.7284 66.0262C16.1464 66.4332 15.272 66.7151 15.272 66.7151Z" fill="white"/>
<path d="M54.3323 101.342C81.4162 97.8111 109.051 115.601 109.051 115.601C109.051 115.601 98.3868 126.545 82.2363 134.643C75.637 137.951 68.0416 140.604 59.7788 141.682C31.2932 145.394 5.4802 128.238 5.4802 128.238C5.4802 128.238 18.9418 112.924 39.2843 105.208C39.3116 105.197 39.3342 105.18 39.3621 105.169C44.0206 103.406 49.0344 102.035 54.3323 101.342Z" fill="white"/>
<path d="M93.5148 38.6769C93.5102 38.7114 93.5064 38.7432 93.5013 38.7774C92.8782 43.7273 92.7269 48.9314 93.2987 54.2521C94.1238 61.9359 96.3711 69.0735 99.2145 75.406C99.4004 75.8223 99.5874 76.2358 99.7809 76.6445C100.35 77.8643 100.942 79.0491 101.547 80.2015C101.55 80.2031 101.55 80.2053 101.551 80.2081C106.035 88.7368 111.315 95.4318 114.897 99.4957C115.166 99.7976 115.424 100.088 115.672 100.363C115.861 100.569 116.04 100.768 116.214 100.956C116.273 101.019 116.33 101.081 116.387 101.144C116.537 101.305 116.699 101.447 116.821 101.608C117.713 102.773 119.373 104.828 119.373 104.826C119.782 104.242 128.645 90.6532 132.498 72.85C133.99 65.9724 134.636 58.1522 133.796 50.3248C130.726 21.7643 107.991 0.574209 107.991 0.574209C107.991 0.574209 96.2556 17.1138 93.5148 38.6769Z" fill="white"/>
</g>
<defs>
<filter id="filter0_d_961_85" x="0.386963" y="0.574219" width="157.619" height="149.633" filterUnits="userSpaceOnUse" color-interpolation-filters="sRGB">
<feFlood flood-opacity="0" result="BackgroundImageFix"/>
<feColorMatrix in="SourceAlpha" type="matrix" values="0 0 0 0 0 0 0 0 0 0 0 0 0 0 0 0 0 0 127 0" result="hardAlpha"/>
<feOffset dy="4"/>
<feGaussianBlur stdDeviation="2"/>
<feComposite in2="hardAlpha" operator="out"/>
<feColorMatrix type="matrix" values="0 0 0 0 0 0 0 0 0 0 0 0 0 0 0 0 0 0 0.25 0"/>
<feBlend mode="normal" in2="BackgroundImageFix" result="effect1_dropShadow_961_85"/>
<feBlend mode="normal" in="SourceGraphic" in2="effect1_dropShadow_961_85" result="shape"/>
</filter>
</defs>
</svg>
