<svg width="423" height="98" viewBox="0 0 423 98" fill="none" xmlns="http://www.w3.org/2000/svg">
<g filter="url(#filter0_d_931_2)">
<path d="M88.2541 50.9442C97.8 62.5657 101.467 74.2919 96.5302 81.2293C91.488 88.3155 78.781 88.5575 64.2926 82.9878C65.9503 82.096 67.6489 81.0861 69.334 79.9463C73.0068 77.4661 76.7027 74.1904 79.7279 70.2636C84.4496 64.1308 86.9443 57.0445 88.2541 50.9442Z" fill="url(#paint0_linear_931_2)"/>
<path d="M26.6037 12.1033C26.7266 16.1304 27.5124 25.7234 31.9506 35.0969C21.3436 33.7476 11.7226 36.1489 8.09609 37.237C4.03605 29.3755 3.2587 22.1748 6.70361 17.3108C10.2319 12.3287 17.5443 10.7099 26.6037 12.1033Z" fill="#3483FA"/>
<path d="M59.1933 45.1655C55.5574 41.598 51.8475 40.2287 48.2792 38.6411C48.2277 38.6179 48.0257 38.6453 47.9725 38.6226C47.777 38.5375 47.5057 38.4763 47.3072 38.3937C47.1367 38.3214 46.926 38.2623 46.753 38.1923C46.5723 38.1183 46.3707 38.0532 46.1875 37.9812C43.1266 36.7927 40.0089 36.0399 36.9738 35.5987C36.7793 35.57 36.58 35.5443 36.3854 35.5194C31.9996 26.1205 31.2631 16.5256 31.1631 12.4976C31.1316 11.2422 31.1624 10.5278 31.1624 10.5278C31.1624 10.5278 45.0031 13.2007 55.7543 21.4937C55.8613 21.5744 55.9668 21.6575 56.0726 21.7404C55.7859 24.8682 56.1335 28.1152 56.2739 31.4818C56.4893 36.6635 59.1933 45.1655 59.1933 45.1655Z" fill="#3483FA"/>
<path d="M11.3801 41.8395C11.3801 41.8395 16.9284 53.2535 27.8406 61.3965C27.9411 61.4742 28.0444 61.5508 28.1492 61.6272C31.082 60.5168 34.24 59.6585 37.5754 59.2225C54.6275 56.9993 72.5866 68.6013 72.5788 68.5909C67.8675 62.9737 63.1731 57.2311 60.3495 51.8614C60.349 51.86 58.2064 49.8764 58.1267 49.7974C55.3246 47.3751 52.257 45.553 48.6337 43.7246C46.141 42.4668 40.4557 40.846 37.4372 40.303C37.2435 40.2678 37.046 40.2354 36.8515 40.2035C26.3062 38.4381 16.5932 40.4611 12.9266 41.4057C11.9306 41.662 11.3801 41.8395 11.3801 41.8395Z" fill="#11EC5B"/>
<path d="M35.9716 63.6401C53.023 61.4168 70.4212 72.6169 70.4212 72.6169C70.4212 72.6169 63.7073 79.5071 53.5393 84.6054C49.3845 86.6878 44.6026 88.3582 39.4006 89.0366C21.4667 91.3741 5.21538 80.573 5.21538 80.573C5.21538 80.573 13.6905 70.9312 26.4977 66.0739C26.5149 66.0669 26.5291 66.0561 26.5467 66.0493C29.4795 64.9392 32.6361 64.0761 35.9716 63.6401Z" fill="#FFE345"/>
<path d="M60.6399 24.1872C60.6371 24.2089 60.6347 24.229 60.6315 24.2505C60.2392 27.3669 60.144 30.6432 60.5039 33.993C61.0234 38.8306 62.4382 43.3243 64.2283 47.311C64.3454 47.5731 64.4631 47.8335 64.585 48.0907C64.9433 48.8587 65.316 49.6046 65.6966 50.3302C65.6985 50.3312 65.6989 50.3326 65.6994 50.3343C68.5227 55.7038 71.8465 59.9188 74.1017 62.4773C74.271 62.6674 74.4335 62.8503 74.5896 63.0234C74.7088 63.1532 74.8214 63.2786 74.9308 63.3966C74.9683 63.4365 75.004 63.4757 75.0397 63.5148C75.1345 63.6163 75.236 63.7058 75.3133 63.807C75.8747 64.5404 76.92 65.8345 76.9197 65.8333C77.1774 65.4653 82.7569 56.9103 85.1829 45.7018C86.1222 41.3719 86.5291 36.4484 86.0004 31.5205C84.0674 13.5394 69.7538 0.198633 69.7538 0.198633C69.7538 0.198633 62.3656 10.6116 60.6399 24.1872Z" fill="#FFE345"/>
</g>
<g filter="url(#filter1_d_931_2)">
<path d="M118.594 6.53642H130.754C136.685 6.53642 141.037 7.75242 143.81 10.1844C146.626 12.6164 148.034 16.2004 148.034 20.9364C148.034 25.3311 146.648 28.7871 143.874 31.3044C142.637 32.4138 141.25 33.2244 139.714 33.7364L150.594 51.3364H140.354L131.074 35.3364H127.554V51.3364H118.594V6.53642ZM130.754 29.5764C133.698 29.5764 135.81 28.9151 137.09 27.5924C138.413 26.2271 139.074 24.0084 139.074 20.9364C139.074 17.8644 138.413 15.6671 137.09 14.3444C135.81 12.9791 133.698 12.2964 130.754 12.2964H127.554V29.5764H130.754ZM160.489 15.1764C159.209 15.1764 158.079 14.7071 157.097 13.7684C156.159 12.7871 155.689 11.6564 155.689 10.3764C155.689 9.09642 156.159 7.98709 157.097 7.04842C158.079 6.06709 159.209 5.57642 160.489 5.57642C161.769 5.57642 162.879 6.06709 163.817 7.04842C164.799 7.98709 165.289 9.09642 165.289 10.3764C165.289 11.6564 164.799 12.7871 163.817 13.7684C162.879 14.7071 161.769 15.1764 160.489 15.1764ZM156.009 51.3364V19.3364H164.969V51.3364H156.009ZM173.947 19.3364H180.347L180.987 23.1764H181.307C181.733 22.5364 182.459 21.7898 183.483 20.9364C185.488 19.4431 187.643 18.6964 189.947 18.6964C193.829 18.6964 196.816 19.7631 198.907 21.8964C201.04 23.9871 202.107 26.9738 202.107 30.8564V51.3364H193.147V30.8564C193.147 28.8511 192.72 27.3364 191.867 26.3124C191.013 25.2884 189.84 24.7764 188.347 24.7764C186.939 24.7764 185.595 25.4164 184.315 26.6964C183.888 27.2084 183.419 27.8484 182.907 28.6164V51.3364H173.947V19.3364ZM223.239 51.9764C219.57 51.9764 216.669 50.9738 214.535 48.9684C212.445 46.9631 211.399 44.3391 211.399 41.0964V25.0964H207.239V21.2564L216.839 11.6564H220.359V19.3364H227.719V25.0964H220.359V41.0964C220.359 42.8031 220.679 44.0831 221.319 44.9364C221.959 45.7898 222.813 46.2164 223.879 46.2164C225.159 46.2164 226.418 45.7898 227.655 44.9364C228.21 44.5524 228.765 44.1258 229.319 43.6564H229.959L232.839 48.7764C231.73 49.5018 230.77 50.0351 229.959 50.3764C227.655 51.4431 225.415 51.9764 223.239 51.9764ZM251.402 51.9764C240.735 51.9764 235.402 46.4298 235.402 35.3364C235.402 29.8751 236.639 25.7364 239.114 22.9204C241.588 20.1044 245.044 18.6964 249.482 18.6964C253.876 18.6964 257.311 20.0618 259.786 22.7924C262.303 25.5231 263.562 29.4911 263.562 34.6964V36.2964L261.642 38.2164H244.362C244.362 43.5498 246.922 46.2164 252.042 46.2164C253.834 46.2164 255.476 45.7898 256.97 44.9364C257.567 44.6378 258.164 44.2111 258.762 43.6564H259.402L262.282 48.7764C261.087 49.5018 260.063 50.0351 259.21 50.3764C256.65 51.4431 254.047 51.9764 251.402 51.9764ZM254.602 32.4564C254.602 29.8964 254.09 27.9338 253.066 26.5684C252.084 25.1604 250.89 24.4564 249.482 24.4564C248.074 24.4564 246.858 25.1604 245.834 26.5684C244.852 27.9338 244.362 29.8964 244.362 32.4564H254.602ZM282.412 64.7764C279.553 64.7764 276.844 64.2431 274.284 63.1764C273.302 62.7924 272.278 62.2591 271.212 61.5764L274.092 56.4564H274.732C275.286 56.9258 275.905 57.3524 276.588 57.7364C278.081 58.5898 279.809 59.0164 281.772 59.0164C283.862 59.0164 285.505 58.3978 286.7 57.1604C287.894 55.9658 288.492 54.2378 288.492 51.9764V50.0564C287.894 50.4831 287.297 50.8031 286.7 51.0164C285.164 51.6564 283.628 51.9764 282.092 51.9764C277.953 51.9764 274.668 50.5684 272.236 47.7524C269.846 44.9364 268.652 40.7978 268.652 35.3364C268.652 29.9178 269.825 25.8004 272.172 22.9844C274.518 20.1258 277.612 18.6964 281.452 18.6964C283.756 18.6964 285.91 19.4431 287.916 20.9364C288.769 21.6618 289.494 22.4084 290.092 23.1764H290.412L291.052 19.3364H297.452V51.9764C297.452 54.4511 296.854 56.6484 295.66 58.5684C294.465 60.5311 292.737 62.0458 290.476 63.1124C288.214 64.2218 285.526 64.7764 282.412 64.7764ZM283.692 46.2164C284.972 46.2164 286.124 45.8964 287.148 45.2564C287.617 45.0004 288.065 44.6804 288.492 44.2964V28.6164C287.98 27.8484 287.51 27.2084 287.084 26.6964C285.804 25.4164 284.46 24.7764 283.052 24.7764C281.43 24.7764 280.108 25.6084 279.084 27.2724C278.102 28.9364 277.612 31.6244 277.612 35.3364C277.612 39.2618 278.145 42.0564 279.212 43.7204C280.278 45.3844 281.772 46.2164 283.692 46.2164ZM306.384 19.3364H312.784L313.424 23.1764H313.744C314.171 22.5364 314.896 21.7898 315.92 20.9364C317.926 19.4431 320.08 18.6964 322.384 18.6964C323.494 18.6964 324.582 18.8031 325.648 19.0164C326.331 19.1871 326.843 19.2938 327.184 19.3364L325.904 25.7364H325.264C324.88 25.6938 324.411 25.5871 323.856 25.4164C322.918 25.2031 321.894 25.0964 320.784 25.0964C319.376 25.0964 318.032 25.7364 316.752 27.0164C316.326 27.5284 315.856 28.1684 315.344 28.9364V51.3364H306.384V19.3364ZM341.554 51.9764C337.8 51.9764 334.877 51.0804 332.786 49.2884C330.738 47.4538 329.714 45.0431 329.714 42.0564C329.714 38.8564 330.866 36.3604 333.17 34.5684C335.517 32.7338 339.165 31.8164 344.114 31.8164H348.594V30.8564C348.594 28.5951 348.104 26.9738 347.122 25.9924C346.141 24.9684 344.605 24.4564 342.514 24.4564C340.722 24.4564 339.08 24.8831 337.586 25.7364C336.989 26.0351 336.392 26.4618 335.794 27.0164H335.154L332.274 21.8964C333.298 21.2138 334.301 20.6804 335.282 20.2964C338.056 19.2298 340.68 18.6964 343.154 18.6964C346.141 18.6964 348.722 19.2298 350.898 20.2964C353.074 21.3204 354.717 22.7498 355.826 24.5844C356.978 26.4191 357.554 28.5098 357.554 30.8564V51.3364H351.154L350.514 47.4964H350.194C349.469 48.4351 348.744 49.1818 348.018 49.7364C346.226 51.2298 344.072 51.9764 341.554 51.9764ZM343.154 45.8964C344.477 45.8964 345.778 45.2564 347.058 43.9764C347.656 43.3791 348.168 42.7391 348.594 42.0564V37.5764H344.114C340.488 37.5764 338.674 39.0698 338.674 42.0564C338.674 43.2084 339.058 44.1471 339.826 44.8724C340.637 45.5551 341.746 45.8964 343.154 45.8964ZM378.677 51.9764C375.007 51.9764 372.106 50.9738 369.973 48.9684C367.882 46.9631 366.837 44.3391 366.837 41.0964V25.0964H362.677V21.2564L372.277 11.6564H375.797V19.3364H383.157V25.0964H375.797V41.0964C375.797 42.8031 376.117 44.0831 376.757 44.9364C377.397 45.7898 378.25 46.2164 379.317 46.2164C380.597 46.2164 381.855 45.7898 383.093 44.9364C383.647 44.5524 384.202 44.1258 384.757 43.6564H385.397L388.277 48.7764C387.167 49.5018 386.207 50.0351 385.397 50.3764C383.093 51.4431 380.853 51.9764 378.677 51.9764ZM406.839 51.9764C396.173 51.9764 390.839 46.4298 390.839 35.3364C390.839 29.8751 392.077 25.7364 394.551 22.9204C397.026 20.1044 400.482 18.6964 404.919 18.6964C409.314 18.6964 412.749 20.0618 415.223 22.7924C417.741 25.5231 418.999 29.4911 418.999 34.6964V36.2964L417.079 38.2164H399.799C399.799 43.5498 402.359 46.2164 407.479 46.2164C409.271 46.2164 410.914 45.7898 412.407 44.9364C413.005 44.6378 413.602 44.2111 414.199 43.6564H414.839L417.719 48.7764C416.525 49.5018 415.501 50.0351 414.647 50.3764C412.087 51.4431 409.485 51.9764 406.839 51.9764ZM410.039 32.4564C410.039 29.8964 409.527 27.9338 408.503 26.5684C407.522 25.1604 406.327 24.4564 404.919 24.4564C403.511 24.4564 402.295 25.1604 401.271 26.5684C400.29 27.9338 399.799 29.8964 399.799 32.4564H410.039Z" fill="white"/>
</g>
<path d="M128.925 71.2648H131.014L128.983 83.1486C128.844 84.2008 128.523 85.1292 128.02 85.9339C127.517 86.7308 126.855 87.3497 126.035 87.7907C125.223 88.2317 124.271 88.4406 123.18 88.4174C122.128 88.3942 121.265 88.1582 120.592 87.7095C119.919 87.253 119.44 86.634 119.153 85.8526C118.867 85.0712 118.778 84.1737 118.886 83.1602L120.906 71.2648H122.983L120.975 83.1718C120.898 83.7985 120.913 84.3672 121.022 84.8778C121.13 85.3807 121.362 85.783 121.718 86.0847C122.082 86.3865 122.612 86.5489 123.308 86.5722C124.043 86.6031 124.658 86.4793 125.153 86.2008C125.648 85.9145 126.039 85.5122 126.325 84.9939C126.612 84.4677 126.805 83.8604 126.906 83.1718L128.925 71.2648Z" fill="white"/>
<path d="M134.658 78.4137L132.964 88.1621H130.956L133.138 75.6052H135.029L134.658 78.4137ZM133.729 81.4543L132.998 81.4194C133.083 80.7618 133.23 80.0771 133.439 79.3653C133.656 78.6458 133.954 77.9804 134.333 77.3692C134.712 76.758 135.188 76.2667 135.76 75.8953C136.341 75.5162 137.037 75.3383 137.849 75.3615C138.476 75.3847 138.979 75.5356 139.358 75.8141C139.745 76.0926 140.027 76.4563 140.205 76.905C140.391 77.346 140.503 77.8334 140.542 78.3673C140.58 78.8934 140.573 79.4156 140.519 79.934L139.149 88.1621H137.141L138.522 79.8992C138.561 79.4968 138.565 79.0907 138.534 78.6806C138.511 78.2628 138.395 77.9108 138.186 77.6245C137.977 77.3305 137.617 77.1758 137.107 77.1603C136.573 77.1448 136.105 77.2764 135.702 77.5549C135.308 77.8334 134.975 78.197 134.704 78.6458C134.434 79.0868 134.217 79.5587 134.054 80.0616C133.9 80.5568 133.791 81.021 133.729 81.4543Z" fill="white"/>
<path d="M146.46 75.6052L144.279 88.1621H142.283L144.464 75.6052H146.46ZM144.929 72.2977C144.944 71.9573 145.052 71.6633 145.253 71.4157C145.455 71.1604 145.729 71.0289 146.077 71.0211C146.441 71.0134 146.723 71.1333 146.925 71.3809C147.126 71.6285 147.219 71.9225 147.203 72.2629C147.188 72.5879 147.076 72.8741 146.867 73.1217C146.658 73.3615 146.383 73.4853 146.043 73.4931C145.687 73.5008 145.408 73.3886 145.207 73.1565C145.014 72.9167 144.921 72.6304 144.929 72.2977Z" fill="white"/>
<path d="M154.248 85.5973L156.894 70.3364H158.89L155.791 88.1621H153.981L154.248 85.5973ZM148.016 82.4871L148.155 81.3266C148.248 80.6303 148.399 79.9301 148.607 79.226C148.824 78.5143 149.122 77.8644 149.501 77.2764C149.88 76.6806 150.364 76.2087 150.952 75.8605C151.54 75.5046 152.248 75.3422 153.075 75.3731C153.803 75.3963 154.379 75.6013 154.805 75.9882C155.238 76.3673 155.555 76.8508 155.756 77.4388C155.965 78.0191 156.089 78.6342 156.128 79.2841C156.174 79.934 156.174 80.5452 156.128 81.1177L155.919 82.6844C155.818 83.3033 155.66 83.9532 155.443 84.6341C155.226 85.3072 154.932 85.9339 154.561 86.5141C154.197 87.0944 153.745 87.5625 153.203 87.9184C152.662 88.2665 152.012 88.429 151.253 88.4058C150.472 88.3826 149.849 88.1814 149.385 87.8023C148.928 87.4155 148.588 86.9242 148.364 86.3284C148.147 85.7327 148.016 85.0983 147.969 84.4252C147.93 83.7443 147.946 83.0983 148.016 82.4871ZM150.163 81.315L150.023 82.4987C149.977 82.901 149.946 83.3343 149.93 83.7985C149.923 84.2627 149.969 84.7076 150.07 85.1331C150.17 85.5509 150.36 85.8952 150.638 86.166C150.925 86.4368 151.342 86.5799 151.892 86.5954C152.441 86.6108 152.932 86.4677 153.366 86.166C153.807 85.8642 154.174 85.4774 154.468 85.0054C154.762 84.5335 154.979 84.0538 155.118 83.5664L155.652 80.2473C155.66 79.9069 155.625 79.5626 155.547 79.2144C155.47 78.8585 155.338 78.5297 155.153 78.228C154.975 77.9263 154.747 77.6825 154.468 77.4969C154.19 77.3034 153.861 77.1951 153.482 77.1719C152.894 77.1487 152.398 77.257 151.996 77.4969C151.602 77.7367 151.277 78.0655 151.021 78.4833C150.774 78.8934 150.58 79.346 150.441 79.8411C150.31 80.3363 150.217 80.8276 150.163 81.315Z" fill="white"/>
<path d="M159.458 82.4871L159.609 81.3034C159.71 80.5529 159.895 79.8218 160.166 79.11C160.445 78.3982 160.812 77.756 161.269 77.1835C161.725 76.611 162.275 76.1584 162.917 75.8257C163.567 75.493 164.317 75.3422 165.168 75.3731C165.973 75.3963 166.642 75.5859 167.176 75.9418C167.71 76.2899 168.124 76.7503 168.418 77.3228C168.719 77.8953 168.917 78.5259 169.009 79.2144C169.102 79.903 169.114 80.5955 169.044 81.2918L168.893 82.4871C168.793 83.2299 168.603 83.961 168.325 84.6805C168.054 85.3923 167.686 86.0345 167.222 86.607C166.766 87.1718 166.213 87.6205 165.563 87.9532C164.921 88.2781 164.178 88.4251 163.334 88.3942C162.522 88.3787 161.849 88.193 161.315 87.8371C160.789 87.4812 160.375 87.017 160.073 86.4445C159.779 85.872 159.586 85.2414 159.493 84.5528C159.4 83.8643 159.389 83.1757 159.458 82.4871ZM161.617 81.2918L161.466 82.5103C161.427 82.8972 161.412 83.3266 161.42 83.7985C161.427 84.2627 161.493 84.7076 161.617 85.1331C161.741 85.5586 161.946 85.9145 162.232 86.2008C162.526 86.4793 162.932 86.6302 163.451 86.6534C164.039 86.6843 164.534 86.576 164.936 86.3284C165.346 86.0809 165.683 85.7521 165.946 85.342C166.216 84.9242 166.425 84.4677 166.572 83.9726C166.719 83.4697 166.824 82.9745 166.886 82.4871L167.037 81.2802C167.075 80.8933 167.091 80.4678 167.083 80.0036C167.075 79.5394 167.009 79.0945 166.886 78.669C166.762 78.2357 166.553 77.876 166.259 77.5897C165.973 77.3034 165.567 77.1487 165.04 77.1255C164.491 77.1023 164.011 77.2183 163.601 77.4736C163.199 77.7212 162.863 78.0578 162.592 78.4833C162.321 78.9088 162.104 79.3692 161.942 79.8643C161.787 80.3595 161.679 80.8353 161.617 81.2918Z" fill="white"/>
<path d="M176.936 84.8546C176.99 84.4677 176.92 84.1428 176.727 83.8797C176.541 83.609 176.294 83.3807 175.984 83.195C175.682 83.0094 175.385 82.843 175.091 82.696C174.688 82.4949 174.298 82.286 173.918 82.0693C173.547 81.8527 173.214 81.6051 172.92 81.3266C172.626 81.0481 172.398 80.7231 172.236 80.3517C172.073 79.9804 172.007 79.5394 172.038 79.0287C172.069 78.4717 172.205 77.9649 172.445 77.5085C172.684 77.052 173.002 76.6652 173.396 76.3479C173.791 76.023 174.236 75.7754 174.731 75.6052C175.226 75.435 175.744 75.3576 176.286 75.3731C177.036 75.3886 177.679 75.5627 178.212 75.8953C178.754 76.2203 179.16 76.669 179.431 77.2415C179.709 77.8063 179.833 78.4562 179.802 79.1912L177.818 79.1796C177.833 78.8237 177.783 78.4949 177.667 78.1932C177.559 77.8837 177.381 77.6361 177.133 77.4504C176.885 77.257 176.564 77.1564 176.17 77.1487C175.798 77.1487 175.458 77.2222 175.149 77.3692C174.839 77.5162 174.584 77.7251 174.383 77.9959C174.189 78.2667 174.065 78.5878 174.011 78.9591C173.973 79.2299 173.996 79.4659 174.081 79.667C174.174 79.8605 174.305 80.0307 174.475 80.1777C174.646 80.3247 174.835 80.4562 175.044 80.5723C175.261 80.6806 175.474 80.785 175.682 80.8856C176.239 81.1564 176.773 81.4504 177.284 81.7676C177.795 82.0848 178.205 82.4755 178.514 82.9397C178.831 83.3962 178.971 83.9803 178.932 84.6921C178.893 85.2878 178.75 85.8178 178.502 86.282C178.255 86.7462 177.926 87.137 177.516 87.4542C177.114 87.7714 176.653 88.0112 176.135 88.1737C175.624 88.3361 175.083 88.4097 174.51 88.3942C173.737 88.3787 173.056 88.2008 172.468 87.8603C171.888 87.5199 171.439 87.0518 171.122 86.4561C170.812 85.8604 170.673 85.1718 170.704 84.3904L172.723 84.402C172.708 84.8275 172.762 85.2066 172.886 85.5393C173.009 85.872 173.211 86.135 173.489 86.3284C173.775 86.5141 174.147 86.6108 174.603 86.6186C174.982 86.6186 175.338 86.5567 175.671 86.4329C176.004 86.3014 176.282 86.1079 176.506 85.8526C176.738 85.5896 176.882 85.2569 176.936 84.8546Z" fill="white"/>
<path d="M190.874 88.3942C190.061 88.3787 189.384 88.2162 188.843 87.9068C188.301 87.5973 187.88 87.1795 187.578 86.6534C187.276 86.1273 187.075 85.5316 186.974 84.8662C186.881 84.2008 186.874 83.5084 186.951 82.7888L187.125 81.373C187.218 80.6303 187.392 79.8992 187.647 79.1796C187.903 78.4601 188.247 77.8102 188.68 77.2299C189.114 76.642 189.647 76.1777 190.282 75.8373C190.916 75.4969 191.659 75.3422 192.51 75.3731C193.353 75.3963 194.023 75.5859 194.518 75.9418C195.013 76.2977 195.377 76.7619 195.609 77.3344C195.841 77.9069 195.972 78.5375 196.003 79.226C196.042 79.9146 196.019 80.6032 195.934 81.2918L195.759 82.4871H188.135L188.448 80.7347L193.995 80.7463L194.042 80.433C194.104 79.961 194.115 79.4775 194.077 78.9823C194.038 78.4794 193.891 78.0539 193.636 77.7058C193.38 77.3499 192.963 77.1565 192.382 77.1255C191.787 77.0946 191.291 77.2067 190.897 77.4621C190.51 77.7174 190.197 78.0617 189.957 78.4949C189.717 78.9282 189.531 79.4001 189.4 79.9108C189.276 80.4136 189.187 80.9011 189.133 81.373L188.959 82.8005C188.912 83.226 188.897 83.6631 188.912 84.1118C188.928 84.5528 189.001 84.9629 189.133 85.342C189.272 85.7211 189.493 86.0306 189.794 86.2704C190.104 86.5025 190.529 86.6263 191.071 86.6418C191.674 86.6573 192.216 86.5335 192.696 86.2704C193.183 86.0074 193.628 85.6592 194.03 85.226L195.005 86.5373C194.672 86.9629 194.286 87.3149 193.845 87.5934C193.411 87.8719 192.943 88.077 192.44 88.2085C191.937 88.34 191.415 88.4019 190.874 88.3942Z" fill="white"/>
<path d="M200.877 78.4137L199.183 88.1621H197.175L199.357 75.6052H201.249L200.877 78.4137ZM199.949 81.4543L199.218 81.4194C199.303 80.7618 199.45 80.0771 199.659 79.3653C199.875 78.6458 200.173 77.9804 200.552 77.3692C200.932 76.758 201.407 76.2667 201.98 75.8953C202.56 75.5162 203.256 75.3383 204.069 75.3615C204.696 75.3847 205.198 75.5356 205.578 75.8141C205.964 76.0926 206.247 76.4563 206.425 76.905C206.61 77.346 206.723 77.8334 206.761 78.3673C206.8 78.8934 206.792 79.4156 206.738 79.934L205.369 88.1621H203.361L204.742 79.8992C204.781 79.4968 204.784 79.0907 204.754 78.6806C204.73 78.2628 204.614 77.9108 204.405 77.6245C204.196 77.3305 203.837 77.1758 203.326 77.1603C202.792 77.1448 202.324 77.2764 201.922 77.5549C201.527 77.8334 201.195 78.197 200.924 78.6458C200.653 79.0868 200.436 79.5587 200.274 80.0616C200.119 80.5568 200.011 81.021 199.949 81.4543Z" fill="white"/>
<path d="M220.432 85.1447L222.092 75.6052H224.099L221.918 88.1621H220.014L220.432 85.1447ZM221.187 82.5684L221.883 82.5451C221.798 83.226 221.666 83.9184 221.488 84.6225C221.31 85.3188 221.051 85.9571 220.711 86.5373C220.378 87.1176 219.933 87.5818 219.376 87.93C218.819 88.2704 218.123 88.429 217.287 88.4058C216.637 88.3903 216.119 88.2394 215.732 87.9532C215.345 87.6592 215.055 87.2839 214.862 86.8275C214.668 86.3633 214.552 85.8604 214.514 85.3188C214.475 84.7695 214.486 84.2318 214.548 83.7057L215.906 75.6052H217.902L216.544 83.7405C216.521 83.9881 216.506 84.2705 216.498 84.5877C216.49 84.9049 216.517 85.2143 216.579 85.5161C216.649 85.8101 216.773 86.0577 216.951 86.2588C217.136 86.4522 217.403 86.5567 217.751 86.5722C218.525 86.6108 219.148 86.429 219.62 86.0267C220.092 85.6244 220.448 85.1099 220.688 84.4832C220.935 83.8488 221.101 83.2105 221.187 82.5684Z" fill="white"/>
<path d="M228.591 78.4137L226.896 88.1621H224.889L227.07 75.6052H228.962L228.591 78.4137ZM227.662 81.4543L226.931 81.4194C227.016 80.7618 227.163 80.0771 227.372 79.3653C227.589 78.6458 227.887 77.9804 228.266 77.3692C228.645 76.758 229.121 76.2667 229.693 75.8953C230.273 75.5162 230.97 75.3383 231.782 75.3615C232.409 75.3847 232.912 75.5356 233.291 75.8141C233.678 76.0926 233.96 76.4563 234.138 76.905C234.324 77.346 234.436 77.8334 234.475 78.3673C234.513 78.8934 234.505 79.4156 234.451 79.934L233.082 88.1621H231.074L232.455 79.8992C232.494 79.4968 232.498 79.0907 232.467 78.6806C232.444 78.2628 232.328 77.9108 232.119 77.6245C231.91 77.3305 231.55 77.1758 231.039 77.1603C230.506 77.1448 230.037 77.2764 229.635 77.5549C229.241 77.8334 228.908 78.197 228.637 78.6458C228.366 79.0868 228.15 79.5587 227.987 80.0616C227.832 80.5568 227.724 81.021 227.662 81.4543Z" fill="white"/>
<path d="M245.987 86.665C246.49 86.6805 246.915 86.576 247.264 86.3517C247.619 86.1273 247.906 85.8256 248.122 85.4465C248.339 85.0674 248.498 84.6534 248.598 84.2047L250.478 84.1931C250.362 84.9822 250.095 85.6979 249.677 86.3401C249.267 86.9822 248.737 87.4928 248.087 87.8719C247.438 88.2433 246.699 88.4213 245.871 88.4058C245.035 88.3903 244.351 88.2162 243.817 87.8835C243.283 87.5431 242.873 87.0983 242.587 86.549C242.308 85.9919 242.13 85.3729 242.053 84.6921C241.975 84.0113 241.979 83.3111 242.064 82.5916L242.25 81.1757C242.351 80.4098 242.529 79.6748 242.784 78.9707C243.039 78.2589 243.384 77.6284 243.817 77.0791C244.258 76.5298 244.795 76.1004 245.43 75.7909C246.072 75.4814 246.826 75.3422 247.693 75.3731C248.567 75.3963 249.271 75.6207 249.805 76.0462C250.339 76.4717 250.722 77.0288 250.954 77.7174C251.186 78.3982 251.287 79.1371 251.256 79.934L249.376 79.9224C249.391 79.4891 249.356 79.0636 249.271 78.6458C249.186 78.2203 249.012 77.8682 248.749 77.5897C248.486 77.3034 248.095 77.1487 247.577 77.1255C246.989 77.1023 246.494 77.2067 246.091 77.4388C245.697 77.6709 245.376 77.9882 245.128 78.3905C244.881 78.7851 244.687 79.2261 244.548 79.7135C244.416 80.2009 244.32 80.6883 244.258 81.1757L244.072 82.6032C244.026 83.021 243.995 83.462 243.979 83.9262C243.972 84.3904 244.018 84.8275 244.119 85.2375C244.219 85.6476 244.416 85.9842 244.71 86.2472C245.004 86.5103 245.43 86.6495 245.987 86.665Z" fill="white"/>
<path d="M256.629 88.3942C255.817 88.3787 255.14 88.2162 254.598 87.9068C254.056 87.5973 253.635 87.1795 253.333 86.6534C253.031 86.1273 252.83 85.5316 252.73 84.8662C252.637 84.2008 252.629 83.5084 252.706 82.7888L252.88 81.373C252.973 80.6303 253.147 79.8992 253.403 79.1796C253.658 78.4601 254.002 77.8102 254.436 77.2299C254.869 76.642 255.403 76.1777 256.037 75.8373C256.671 75.4969 257.414 75.3422 258.265 75.3731C259.109 75.3963 259.778 75.5859 260.273 75.9418C260.768 76.2977 261.132 76.7619 261.364 77.3344C261.596 77.9069 261.728 78.5375 261.758 79.226C261.797 79.9146 261.774 80.6032 261.689 81.2918L261.515 82.4871H253.89L254.203 80.7347L259.751 80.7463L259.797 80.433C259.859 79.961 259.871 79.4775 259.832 78.9823C259.793 78.4794 259.646 78.0539 259.391 77.7058C259.136 77.3499 258.718 77.1565 258.138 77.1255C257.542 77.0946 257.047 77.2067 256.652 77.4621C256.265 77.7174 255.952 78.0617 255.712 78.4949C255.472 78.9282 255.287 79.4001 255.155 79.9108C255.031 80.4136 254.942 80.9011 254.888 81.373L254.714 82.8005C254.668 83.226 254.652 83.6631 254.668 84.1118C254.683 84.5528 254.757 84.9629 254.888 85.342C255.027 85.7211 255.248 86.0306 255.55 86.2704C255.859 86.5025 256.285 86.6263 256.826 86.6418C257.43 86.6573 257.971 86.5335 258.451 86.2704C258.938 86.0074 259.383 85.6592 259.786 85.226L260.76 86.5373C260.428 86.9629 260.041 87.3149 259.6 87.5934C259.167 87.8719 258.699 88.077 258.196 88.2085C257.693 88.34 257.171 88.4019 256.629 88.3942Z" fill="white"/>
<path d="M266.633 78.4137L264.938 88.1621H262.931L265.112 75.6052H267.004L266.633 78.4137ZM265.704 81.4543L264.973 81.4194C265.058 80.7618 265.205 80.0771 265.414 79.3653C265.631 78.6458 265.929 77.9804 266.308 77.3692C266.687 76.758 267.163 76.2667 267.735 75.8953C268.315 75.5162 269.012 75.3383 269.824 75.3615C270.451 75.3847 270.954 75.5356 271.333 75.8141C271.72 76.0926 272.002 76.4563 272.18 76.905C272.366 77.346 272.478 77.8334 272.517 78.3673C272.555 78.8934 272.547 79.4156 272.493 79.934L271.124 88.1621H269.116L270.497 79.8992C270.536 79.4968 270.54 79.0907 270.509 78.6806C270.486 78.2628 270.37 77.9108 270.161 77.6245C269.952 77.3305 269.592 77.1758 269.081 77.1603C268.548 77.1448 268.079 77.2764 267.677 77.5549C267.283 77.8334 266.95 78.197 266.679 78.6458C266.408 79.0868 266.192 79.5587 266.029 80.0616C265.874 80.5568 265.766 81.021 265.704 81.4543Z" fill="white"/>
<path d="M280.745 75.6052L280.454 77.2532H274.745L275.046 75.6052H280.745ZM277.426 72.553H279.433L277.309 85.0751C277.286 85.2762 277.279 85.489 277.286 85.7134C277.294 85.9377 277.344 86.1273 277.437 86.282C277.538 86.4368 277.72 86.518 277.983 86.5257C278.122 86.5257 278.261 86.5141 278.4 86.4909C278.54 86.46 278.675 86.4329 278.807 86.4097L278.632 88.1737C278.424 88.251 278.207 88.3052 277.983 88.3362C277.766 88.3748 277.545 88.3903 277.321 88.3826C276.718 88.3748 276.265 88.1969 275.963 87.8487C275.669 87.4928 275.48 87.0596 275.395 86.549C275.31 86.0306 275.29 85.5277 275.337 85.0403L277.426 72.553Z" fill="white"/>
<path d="M284.748 77.6593L282.926 88.1621H280.919L283.1 75.6052H285.039L284.748 77.6593ZM288.102 75.524L287.882 77.5201C287.735 77.4891 287.584 77.4621 287.429 77.4388C287.282 77.4156 287.135 77.404 286.988 77.404C286.532 77.3963 286.137 77.4853 285.805 77.6709C285.472 77.8566 285.186 78.1042 284.946 78.4137C284.714 78.7232 284.516 79.0636 284.354 79.4349C284.191 79.8063 284.06 80.1815 283.959 80.5607L283.367 80.9088C283.437 80.3827 283.545 79.7986 283.692 79.1564C283.847 78.5065 284.068 77.8876 284.354 77.2996C284.64 76.7038 285.015 76.2203 285.48 75.8489C285.944 75.4776 286.524 75.3073 287.22 75.3383C287.375 75.346 287.522 75.3692 287.661 75.4079C287.808 75.4389 287.955 75.4776 288.102 75.524Z" fill="white"/>
<path d="M288.323 82.4871L288.474 81.3034C288.574 80.5529 288.76 79.8218 289.031 79.11C289.309 78.3982 289.677 77.756 290.133 77.1835C290.59 76.611 291.139 76.1584 291.781 75.8257C292.431 75.493 293.182 75.3422 294.033 75.3731C294.837 75.3963 295.506 75.5859 296.04 75.9418C296.574 76.2899 296.988 76.7503 297.282 77.3228C297.584 77.8953 297.781 78.5259 297.874 79.2144C297.967 79.903 297.978 80.5955 297.909 81.2918L297.758 82.4871C297.657 83.2299 297.468 83.961 297.189 84.6805C296.918 85.3923 296.551 86.0345 296.087 86.607C295.63 87.1718 295.077 87.6205 294.427 87.9532C293.785 88.2781 293.042 88.4251 292.199 88.3942C291.387 88.3787 290.714 88.193 290.18 87.8371C289.654 87.4812 289.24 87.017 288.938 86.4445C288.644 85.872 288.45 85.2414 288.358 84.5528C288.265 83.8643 288.253 83.1757 288.323 82.4871ZM290.481 81.2918L290.331 82.5103C290.292 82.8972 290.276 83.3266 290.284 83.7985C290.292 84.2627 290.358 84.7076 290.481 85.1331C290.605 85.5586 290.81 85.9145 291.096 86.2008C291.39 86.4793 291.797 86.6302 292.315 86.6534C292.903 86.6843 293.398 86.576 293.801 86.3284C294.211 86.0809 294.547 85.7521 294.81 85.342C295.081 84.9242 295.29 84.4677 295.437 83.9726C295.584 83.4697 295.688 82.9745 295.75 82.4871L295.901 81.2802C295.94 80.8933 295.955 80.4678 295.947 80.0036C295.94 79.5394 295.874 79.0945 295.75 78.669C295.626 78.2357 295.418 77.876 295.124 77.5897C294.837 77.3034 294.431 77.1487 293.905 77.1255C293.356 77.1023 292.876 77.2183 292.466 77.4736C292.064 77.7212 291.727 78.0578 291.456 78.4833C291.185 78.9088 290.969 79.3692 290.806 79.8643C290.652 80.3595 290.543 80.8353 290.481 81.2918Z" fill="white"/>
<path d="M311.545 85.5973L314.191 70.3364H316.187L313.088 88.1621H311.278L311.545 85.5973ZM305.313 82.4871L305.452 81.3266C305.545 80.6303 305.696 79.9301 305.905 79.226C306.121 78.5143 306.419 77.8644 306.798 77.2764C307.177 76.6806 307.661 76.2087 308.249 75.8605C308.837 75.5046 309.545 75.3422 310.373 75.3731C311.1 75.3963 311.676 75.6013 312.102 75.9882C312.535 76.3673 312.852 76.8508 313.054 77.4388C313.262 78.0191 313.386 78.6342 313.425 79.2841C313.471 79.934 313.471 80.5452 313.425 81.1177L313.216 82.6844C313.115 83.3033 312.957 83.9532 312.74 84.6341C312.524 85.3072 312.23 85.9339 311.858 86.5141C311.495 87.0944 311.042 87.5625 310.5 87.9184C309.959 88.2665 309.309 88.429 308.551 88.4058C307.769 88.3826 307.147 88.1814 306.682 87.8023C306.226 87.4155 305.885 86.9242 305.661 86.3284C305.444 85.7327 305.313 85.0983 305.266 84.4252C305.228 83.7443 305.243 83.0983 305.313 82.4871ZM307.46 81.315L307.321 82.4987C307.274 82.901 307.243 83.3343 307.228 83.7985C307.22 84.2627 307.266 84.7076 307.367 85.1331C307.468 85.5509 307.657 85.8952 307.936 86.166C308.222 86.4368 308.64 86.5799 309.189 86.5954C309.738 86.6108 310.23 86.4677 310.663 86.166C311.104 85.8642 311.471 85.4774 311.765 85.0054C312.059 84.5335 312.276 84.0538 312.415 83.5664L312.949 80.2473C312.957 79.9069 312.922 79.5626 312.845 79.2144C312.767 78.8585 312.636 78.5297 312.45 78.228C312.272 77.9263 312.044 77.6825 311.765 77.4969C311.487 77.3034 311.158 77.1951 310.779 77.1719C310.191 77.1487 309.696 77.257 309.294 77.4969C308.899 77.7367 308.574 78.0655 308.319 78.4833C308.071 78.8934 307.878 79.346 307.738 79.8411C307.607 80.3363 307.514 80.8276 307.46 81.315Z" fill="white"/>
<path d="M320.493 75.6052L318.311 88.1621H316.315L318.496 75.6052H320.493ZM318.961 72.2977C318.976 71.9573 319.084 71.6633 319.286 71.4157C319.487 71.1604 319.761 71.0289 320.11 71.0211C320.473 71.0134 320.756 71.1333 320.957 71.3809C321.158 71.6285 321.251 71.9225 321.235 72.2629C321.22 72.5879 321.108 72.8741 320.899 73.1217C320.69 73.3615 320.415 73.4853 320.075 73.4931C319.719 73.5008 319.44 73.3886 319.239 73.1565C319.046 72.9167 318.953 72.6304 318.961 72.2977Z" fill="white"/>
<path d="M330.218 75.6052H332.028L329.881 88.2665C329.757 89.1949 329.487 90.0344 329.069 90.7849C328.651 91.5353 328.086 92.1195 327.374 92.5372C326.663 92.9628 325.804 93.1601 324.798 93.1291C324.357 93.1214 323.916 93.0479 323.475 92.9086C323.042 92.7771 322.628 92.5914 322.233 92.3516C321.839 92.1195 321.498 91.8448 321.212 91.5276L322.152 90.0885C322.485 90.4677 322.864 90.7694 323.289 90.9938C323.723 91.2259 324.198 91.3497 324.717 91.3651C325.344 91.3883 325.874 91.2723 326.307 91.017C326.748 90.7617 327.096 90.4019 327.351 89.9377C327.607 89.4812 327.777 88.9628 327.862 88.3826L329.568 78.2628L330.218 75.6052ZM322.071 82.4871L322.222 81.3382C322.307 80.6341 322.454 79.9262 322.663 79.2144C322.879 78.5026 323.173 77.8528 323.545 77.2648C323.924 76.669 324.404 76.1971 324.984 75.8489C325.572 75.5008 326.284 75.3422 327.119 75.3731C327.846 75.3963 328.423 75.5975 328.848 75.9766C329.282 76.3557 329.603 76.8392 329.812 77.4272C330.02 78.0152 330.144 78.6342 330.183 79.2841C330.229 79.934 330.229 80.5452 330.183 81.1177L329.974 82.6844C329.873 83.3033 329.711 83.9532 329.487 84.6341C329.27 85.3072 328.98 85.9339 328.616 86.5141C328.253 87.0944 327.796 87.5625 327.247 87.9184C326.705 88.2665 326.055 88.429 325.297 88.4058C324.508 88.3826 323.881 88.1814 323.417 87.8023C322.961 87.4232 322.62 86.9358 322.396 86.3401C322.179 85.7443 322.052 85.1099 322.013 84.4368C321.982 83.756 322.001 83.1061 322.071 82.4871ZM324.206 81.315L324.079 82.4987C324.032 82.901 324.001 83.3343 323.986 83.7985C323.978 84.2627 324.021 84.7037 324.113 85.1215C324.214 85.5393 324.404 85.8874 324.682 86.166C324.968 86.4368 325.386 86.5799 325.935 86.5954C326.485 86.6108 326.976 86.4677 327.409 86.166C327.85 85.8642 328.218 85.4774 328.512 85.0054C328.806 84.5335 329.022 84.0538 329.162 83.5664L329.684 80.2473C329.699 79.9069 329.665 79.5626 329.579 79.2144C329.502 78.8585 329.374 78.5297 329.196 78.228C329.019 77.9263 328.79 77.6825 328.512 77.4969C328.233 77.3034 327.904 77.1951 327.525 77.1719C326.937 77.141 326.442 77.2493 326.04 77.4969C325.645 77.7367 325.324 78.0655 325.077 78.4833C324.829 78.8934 324.636 79.3498 324.496 79.8527C324.365 80.3479 324.268 80.8353 324.206 81.315Z" fill="white"/>
<path d="M337.158 75.6052L334.976 88.1621H332.98L335.162 75.6052H337.158ZM335.626 72.2977C335.641 71.9573 335.75 71.6633 335.951 71.4157C336.152 71.1604 336.427 71.0289 336.775 71.0211C337.138 71.0134 337.421 71.1333 337.622 71.3809C337.823 71.6285 337.916 71.9225 337.9 72.2629C337.885 72.5879 337.773 72.8741 337.564 73.1217C337.355 73.3615 337.08 73.4853 336.74 73.4931C336.384 73.5008 336.105 73.3886 335.904 73.1565C335.711 72.9167 335.618 72.6304 335.626 72.2977Z" fill="white"/>
<path d="M344.759 75.6052L344.469 77.2532H338.759L339.061 75.6052H344.759ZM341.44 72.553H343.448L341.324 85.0751C341.301 85.2762 341.293 85.489 341.301 85.7134C341.308 85.9377 341.359 86.1273 341.452 86.282C341.552 86.4368 341.734 86.518 341.997 86.5257C342.136 86.5257 342.276 86.5141 342.415 86.4909C342.554 86.46 342.69 86.4329 342.821 86.4097L342.647 88.1737C342.438 88.251 342.221 88.3052 341.997 88.3362C341.78 88.3748 341.56 88.3903 341.336 88.3826C340.732 88.3748 340.279 88.1969 339.978 87.8487C339.684 87.4928 339.494 87.0596 339.409 86.549C339.324 86.0306 339.305 85.5277 339.351 85.0403L341.44 72.553Z" fill="white"/>
<path d="M351.304 86.0151L352.407 79.1796C352.446 78.7773 352.422 78.4253 352.337 78.1236C352.26 77.8141 352.097 77.5704 351.85 77.3924C351.61 77.2145 351.27 77.1255 350.829 77.1255C350.426 77.1178 350.067 77.199 349.749 77.3692C349.432 77.5317 349.169 77.7599 348.96 78.0539C348.759 78.3479 348.62 78.6883 348.542 79.0752L346.558 79.0868C346.612 78.522 346.771 78.0114 347.034 77.5549C347.305 77.0907 347.649 76.6961 348.067 76.3712C348.484 76.0385 348.949 75.787 349.459 75.6168C349.97 75.4389 350.5 75.3538 351.049 75.3615C351.838 75.3692 352.496 75.5356 353.022 75.8605C353.548 76.1777 353.927 76.6265 354.159 77.2067C354.399 77.7793 354.48 78.4524 354.403 79.226L353.382 85.4232C353.312 85.8642 353.285 86.2898 353.301 86.6998C353.316 87.1099 353.335 87.5315 353.359 87.9648L353.335 88.1621L351.328 88.1737C351.25 87.8178 351.215 87.458 351.223 87.0944C351.231 86.7308 351.258 86.371 351.304 86.0151ZM352.558 80.549L352.314 82.0577L351.038 82.0461C350.627 82.0461 350.217 82.0925 349.807 82.1854C349.405 82.2782 349.03 82.4252 348.682 82.6264C348.341 82.8198 348.055 83.079 347.823 83.4039C347.599 83.7211 347.459 84.1119 347.405 84.5761C347.359 84.9552 347.37 85.2956 347.44 85.5973C347.517 85.8913 347.668 86.1273 347.893 86.3052C348.125 86.4754 348.45 86.5605 348.867 86.5605C349.301 86.5605 349.718 86.4638 350.121 86.2704C350.523 86.077 350.867 85.8139 351.154 85.4813C351.448 85.1486 351.641 84.7695 351.734 84.3439L352.047 85.3188C351.954 85.7211 351.796 86.1118 351.571 86.4909C351.355 86.8623 351.088 87.195 350.771 87.489C350.453 87.7752 350.098 87.9996 349.703 88.1621C349.316 88.3323 348.902 88.4174 348.461 88.4174C347.757 88.4174 347.165 88.2588 346.686 87.9416C346.206 87.6244 345.85 87.1988 345.618 86.665C345.386 86.1234 345.293 85.5122 345.339 84.8314C345.378 84.1041 345.552 83.4697 345.862 82.9281C346.179 82.3865 346.589 81.9417 347.092 81.5935C347.595 81.2376 348.156 80.9746 348.775 80.8044C349.401 80.6264 350.051 80.5374 350.724 80.5374L352.558 80.549Z" fill="white"/>
<path d="M361.239 70.3364L358.14 88.1621H356.144L359.242 70.3364H361.239Z" fill="white"/>
<defs>
<filter id="filter0_d_931_2" x="0.5271" y="0.19873" width="102.197" height="97.1692" filterUnits="userSpaceOnUse" color-interpolation-filters="sRGB">
<feFlood flood-opacity="0" result="BackgroundImageFix"/>
<feColorMatrix in="SourceAlpha" type="matrix" values="0 0 0 0 0 0 0 0 0 0 0 0 0 0 0 0 0 0 127 0" result="hardAlpha"/>
<feOffset dy="4"/>
<feGaussianBlur stdDeviation="2"/>
<feComposite in2="hardAlpha" operator="out"/>
<feColorMatrix type="matrix" values="0 0 0 0 0 0 0 0 0 0 0 0 0 0 0 0 0 0 0.25 0"/>
<feBlend mode="normal" in2="BackgroundImageFix" result="effect1_dropShadow_931_2"/>
<feBlend mode="normal" in="SourceGraphic" in2="effect1_dropShadow_931_2" result="shape"/>
</filter>
<filter id="filter1_d_931_2" x="114.594" y="5.57642" width="308.405" height="67.2" filterUnits="userSpaceOnUse" color-interpolation-filters="sRGB">
<feFlood flood-opacity="0" result="BackgroundImageFix"/>
<feColorMatrix in="SourceAlpha" type="matrix" values="0 0 0 0 0 0 0 0 0 0 0 0 0 0 0 0 0 0 127 0" result="hardAlpha"/>
<feOffset dy="4"/>
<feGaussianBlur stdDeviation="2"/>
<feComposite in2="hardAlpha" operator="out"/>
<feColorMatrix type="matrix" values="0 0 0 0 0 0 0 0 0 0 0 0 0 0 0 0 0 0 0.25 0"/>
<feBlend mode="normal" in2="BackgroundImageFix" result="effect1_dropShadow_931_2"/>
<feBlend mode="normal" in="SourceGraphic" in2="effect1_dropShadow_931_2" result="shape"/>
</filter>
<linearGradient id="paint0_linear_931_2" x1="79.3897" y1="71.5264" x2="96.4356" y2="84.6761" gradientUnits="userSpaceOnUse">
<stop stop-color="#FF3737"/>
<stop offset="1" stop-color="#FF3737"/>
</linearGradient>
</defs>
</svg>
